<?xml version="1.0" standalone="no"?><!DOCTYPE svg PUBLIC "-//W3C//DTD SVG 1.1//EN" "http://www.w3.org/Graphics/SVG/1.1/DTD/svg11.dtd"><svg t="1578490955932" class="icon" viewBox="0 0 1024 1024" version="1.1" xmlns="http://www.w3.org/2000/svg" p-id="1124" width="48" height="48" xmlns:xlink="http://www.w3.org/1999/xlink"><defs><style type="text/css"></style></defs><path d="M245.746638 1023.944323a90.235093 90.235093 0 0 1-71.036138-30.71833 139.512414 139.512414 0 0 1-24.318678-106.874188l6.399652-228.467577-127.99304-163.831092a136.952553 136.952553 0 0 1-23.038747-119.673493 120.313458 120.313458 0 0 1 85.115372-72.956033l213.748377-63.99652L410.85766 63.99652A118.393562 118.393562 0 0 1 511.972162 0a127.99304 127.99304 0 0 1 99.194606 58.876799l127.99304 191.98956 191.989561 52.477147A127.99304 127.99304 0 0 1 1020.104532 383.979121a127.99304 127.99304 0 0 1-26.238573 113.913806l-136.952554 184.309978 11.519374 204.788865c-5.119722 125.43318-85.115372 136.952553-109.43405 136.952553a163.191126 163.191126 0 0 1-49.917285-8.319548l-211.188517-81.27558-183.030048 74.875928a202.868969 202.868969 0 0 1-69.116241 14.7192zM511.972162 63.99652a63.99652 63.99652 0 0 0-46.077495 33.278191l-119.033528 191.98956-236.787124 72.956033a63.99652 63.99652 0 0 0-46.077495 33.278191 80.635615 80.635615 0 0 0 15.99913 63.99652l141.43231 176.630396-7.039617 255.98608a88.315198 88.315198 0 0 0 9.599478 63.996521c6.399652 7.679582 24.958643 14.079234 68.476276 0l205.42883-83.835442 232.947334 87.035268a98.554641 98.554641 0 0 0 28.798434 5.119721c11.519374 0 42.877669 0 45.437529-63.99652l-12.799304-226.547681 7.039617-10.239444 143.352205-191.98956A73.595998 73.595998 0 0 0 959.947803 403.178077c-4.479756-15.359165-19.838921-28.158469-46.077495-37.757947L697.56207 307.183297 558.049656 94.71485A63.99652 63.99652 0 0 0 511.972162 63.99652z" p-id="1125" fill="#d4237a"></path></svg>